<svg width="17" height="24" viewBox="0 0 17 24" fill="none" xmlns="http://www.w3.org/2000/svg">
<mask id="path-1-inside-1_1_7" fill="white">
<path d="M9.618 23.9825C8.014 23.9825 6.641 23.4495 5.648 22.4415L1.55 18.2605C0.551 17.2445 0 15.8015 0 14.1975C0 12.6195 0.551 11.1895 1.552 10.1725L11.071 0.491451C11.731 -0.178549 12.9 -0.160549 13.577 0.527451C14.271 1.23345 14.287 2.36645 13.611 3.05145L11.849 4.86745C12.5005 5.13334 13.0919 5.52748 13.588 6.02645L16.051 8.55645C16.723 9.24045 16.706 10.3715 16.012 11.0775C15.8453 11.2496 15.6458 11.3866 15.4253 11.4802C15.2047 11.5738 14.9676 11.6222 14.728 11.6225C14.264 11.6225 13.832 11.4415 13.509 11.1135L10.973 8.62145C10.652 8.29445 10.194 8.13145 9.606 8.13145C9 8.13145 8.537 8.28845 8.231 8.60045L4.164 12.7945C3.822 13.1435 3.643 13.6255 3.643 14.1945C3.643 14.7715 3.832 15.2955 4.162 15.6305L8.245 19.8125C8.56 20.1335 9.019 20.2964 9.607 20.2964C10.195 20.2964 10.652 20.1335 10.967 19.8125L13.516 17.3075C13.6738 17.1473 13.8621 17.0202 14.0697 16.9339C14.2773 16.8475 14.5001 16.8035 14.725 16.8045H14.727C15.21 16.8045 15.666 16.9985 16.013 17.3505C16.706 18.0555 16.723 19.1874 16.049 19.8724L13.592 22.3975C12.586 23.4205 11.176 23.9825 9.618 23.9825ZM12.29 0.982451C12.1957 0.981671 12.1023 0.99986 12.0152 1.03594C11.9281 1.07201 11.8491 1.12524 11.783 1.19245L2.264 10.8735C1.449 11.7025 1 12.8825 1 14.1975C1 15.5385 1.449 16.7324 2.265 17.5604L2.266 17.5615L6.363 21.7415C7.162 22.5525 8.288 22.9825 9.618 22.9825C10.906 22.9825 12.062 22.5275 12.876 21.7005L15.333 19.1755C15.628 18.8745 15.612 18.3714 15.299 18.0534C15.2249 17.976 15.136 17.9143 15.0375 17.8719C14.9391 17.8294 14.8332 17.8072 14.726 17.8064C14.6326 17.8062 14.5392 17.8246 14.453 17.8604C14.3668 17.8963 14.2886 17.949 14.223 18.0155L11.674 20.5205C11.177 21.0275 10.46 21.2985 9.606 21.2985C8.752 21.2985 8.034 21.0275 7.53 20.5145L3.446 16.3325C2.927 15.8055 2.641 15.0465 2.641 14.1965C2.641 13.3725 2.927 12.6265 3.447 12.0975L7.514 7.90345C8.017 7.39145 8.72 7.13245 9.605 7.13245C10.459 7.13245 11.176 7.40345 11.679 7.91545L14.215 10.4075C14.2813 10.4763 14.3608 10.5309 14.4488 10.568C14.5368 10.6052 14.6315 10.624 14.727 10.6235C14.8338 10.6227 14.9394 10.6006 15.0374 10.5583C15.1355 10.5161 15.2241 10.4546 15.298 10.3775C15.611 10.0585 15.628 9.55545 15.335 9.25645L12.874 6.72845C12.3172 6.16781 11.6148 5.77399 10.846 5.59145C10.671 5.55045 10.515 5.41545 10.464 5.24245C10.413 5.06945 10.443 4.87945 10.568 4.75045L12.893 2.35245C13.191 2.05045 13.175 1.54745 12.862 1.22845C12.788 1.15125 12.6992 1.0897 12.6009 1.04744C12.5027 1.00518 12.397 0.983083 12.29 0.982451Z"/>
</mask>
<path d="M9.618 23.9825C8.014 23.9825 6.641 23.4495 5.648 22.4415L1.55 18.2605C0.551 17.2445 0 15.8015 0 14.1975C0 12.6195 0.551 11.1895 1.552 10.1725L11.071 0.491451C11.731 -0.178549 12.9 -0.160549 13.577 0.527451C14.271 1.23345 14.287 2.36645 13.611 3.05145L11.849 4.86745C12.5005 5.13334 13.0919 5.52748 13.588 6.02645L16.051 8.55645C16.723 9.24045 16.706 10.3715 16.012 11.0775C15.8453 11.2496 15.6458 11.3866 15.4253 11.4802C15.2047 11.5738 14.9676 11.6222 14.728 11.6225C14.264 11.6225 13.832 11.4415 13.509 11.1135L10.973 8.62145C10.652 8.29445 10.194 8.13145 9.606 8.13145C9 8.13145 8.537 8.28845 8.231 8.60045L4.164 12.7945C3.822 13.1435 3.643 13.6255 3.643 14.1945C3.643 14.7715 3.832 15.2955 4.162 15.6305L8.245 19.8125C8.56 20.1335 9.019 20.2964 9.607 20.2964C10.195 20.2964 10.652 20.1335 10.967 19.8125L13.516 17.3075C13.6738 17.1473 13.8621 17.0202 14.0697 16.9339C14.2773 16.8475 14.5001 16.8035 14.725 16.8045H14.727C15.21 16.8045 15.666 16.9985 16.013 17.3505C16.706 18.0555 16.723 19.1874 16.049 19.8724L13.592 22.3975C12.586 23.4205 11.176 23.9825 9.618 23.9825ZM12.29 0.982451C12.1957 0.981671 12.1023 0.99986 12.0152 1.03594C11.9281 1.07201 11.8491 1.12524 11.783 1.19245L2.264 10.8735C1.449 11.7025 1 12.8825 1 14.1975C1 15.5385 1.449 16.7324 2.265 17.5604L2.266 17.5615L6.363 21.7415C7.162 22.5525 8.288 22.9825 9.618 22.9825C10.906 22.9825 12.062 22.5275 12.876 21.7005L15.333 19.1755C15.628 18.8745 15.612 18.3714 15.299 18.0534C15.2249 17.976 15.136 17.9143 15.0375 17.8719C14.9391 17.8294 14.8332 17.8072 14.726 17.8064C14.6326 17.8062 14.5392 17.8246 14.453 17.8604C14.3668 17.8963 14.2886 17.949 14.223 18.0155L11.674 20.5205C11.177 21.0275 10.46 21.2985 9.606 21.2985C8.752 21.2985 8.034 21.0275 7.53 20.5145L3.446 16.3325C2.927 15.8055 2.641 15.0465 2.641 14.1965C2.641 13.3725 2.927 12.6265 3.447 12.0975L7.514 7.90345C8.017 7.39145 8.72 7.13245 9.605 7.13245C10.459 7.13245 11.176 7.40345 11.679 7.91545L14.215 10.4075C14.2813 10.4763 14.3608 10.5309 14.4488 10.568C14.5368 10.6052 14.6315 10.624 14.727 10.6235C14.8338 10.6227 14.9394 10.6006 15.0374 10.5583C15.1355 10.5161 15.2241 10.4546 15.298 10.3775C15.611 10.0585 15.628 9.55545 15.335 9.25645L12.874 6.72845C12.3172 6.16781 11.6148 5.77399 10.846 5.59145C10.671 5.55045 10.515 5.41545 10.464 5.24245C10.413 5.06945 10.443 4.87945 10.568 4.75045L12.893 2.35245C13.191 2.05045 13.175 1.54745 12.862 1.22845C12.788 1.15125 12.6992 1.0897 12.6009 1.04744C12.5027 1.00518 12.397 0.983083 12.29 0.982451Z" fill="white"/>
<path d="M5.648 22.4415L3.50551 24.5414L3.51084 24.5468L5.648 22.4415ZM1.55 18.2605L3.69248 16.1605L3.68914 16.1571L1.55 18.2605ZM1.552 10.1725L3.69007 12.2769L3.69114 12.2758L1.552 10.1725ZM11.071 0.491451L8.93379 -1.61386L8.93186 -1.6119L11.071 0.491451ZM13.577 0.527451L15.7164 -1.57561L15.7153 -1.57671L13.577 0.527451ZM13.611 3.05145L11.4757 0.944205L11.4668 0.953257L11.4579 0.962384L13.611 3.05145ZM11.849 4.86745L9.69591 2.77838L6.60263 5.96646L10.7154 7.64502L11.849 4.86745ZM13.588 6.02645L15.7376 3.93379L15.7265 3.92242L15.7153 3.91117L13.588 6.02645ZM16.051 8.55645L13.9014 10.6491L13.911 10.6589L16.051 8.55645ZM16.012 11.0775L13.8726 8.97439L13.8645 8.9826L13.8565 8.99086L16.012 11.0775ZM14.728 11.6225L14.728 14.6225L14.7315 14.6224L14.728 11.6225ZM13.509 11.1135L15.6465 9.00849L15.6293 8.99092L15.6117 8.97365L13.509 11.1135ZM10.973 8.62145L8.83213 10.723L8.85105 10.7423L8.87032 10.7613L10.973 8.62145ZM8.231 8.60045L6.08919 6.49983L6.08324 6.50589L6.07732 6.51199L8.231 8.60045ZM4.164 12.7945L6.3067 14.8942L6.3122 14.8886L6.31768 14.8829L4.164 12.7945ZM4.162 15.6305L6.3086 13.5347L6.29921 13.5251L4.162 15.6305ZM8.245 19.8125L6.09842 21.9082L6.10376 21.9137L8.245 19.8125ZM10.967 19.8125L8.86423 17.6727L8.84482 17.6918L8.82576 17.7112L10.967 19.8125ZM13.516 17.3075L15.6188 19.4472L15.636 19.4302L15.653 19.4129L13.516 17.3075ZM14.725 16.8045L14.7121 19.8045H14.725V16.8045ZM16.013 17.3505L18.1525 15.2474L18.1494 15.2444L16.013 17.3505ZM16.049 19.8724L13.9106 17.7684L13.9047 17.7743L13.8989 17.7803L16.049 19.8724ZM13.592 22.3975L15.731 24.5009L15.7366 24.4953L15.7421 24.4896L13.592 22.3975ZM12.29 0.982451L12.2652 3.98236L12.2723 3.9824L12.29 0.982451ZM11.783 1.19245L9.64424 -0.911287L9.64386 -0.910895L11.783 1.19245ZM2.264 10.8735L0.124857 8.7701L0.124692 8.77027L2.264 10.8735ZM2.265 17.5604L0.128252 19.6662L0.135185 19.6733L0.142164 19.6803L2.265 17.5604ZM2.266 17.5615L4.40848 15.4615L4.39871 15.4515L4.38884 15.4416L2.266 17.5615ZM6.363 21.7415L4.22051 23.8414L4.22593 23.8469L6.363 21.7415ZM12.876 21.7005L15.0141 23.8049L15.0201 23.7988L15.0261 23.7926L12.876 21.7005ZM15.333 19.1755L13.1904 17.0756L13.1829 17.0833L15.333 19.1755ZM15.299 18.0534L13.1322 20.1283L13.1465 20.1432L13.1609 20.1579L15.299 18.0534ZM14.726 17.8064L14.7467 14.8065L14.7338 14.8065L14.726 17.8064ZM14.223 18.0155L16.3258 20.1552L16.3417 20.1395L16.3575 20.1235L14.223 18.0155ZM11.674 20.5205L9.57123 18.3807L9.55126 18.4004L9.53166 18.4204L11.674 20.5205ZM7.53 20.5145L5.38367 22.6105L5.38999 22.6169L7.53 20.5145ZM3.446 16.3325L5.59234 14.2364L5.58348 14.2274L3.446 16.3325ZM3.447 12.0975L5.58644 14.2005L5.59358 14.1932L5.60068 14.1859L3.447 12.0975ZM7.514 7.90345L5.37395 5.80102L5.36712 5.80798L5.36032 5.81499L7.514 7.90345ZM11.679 7.91545L9.53895 10.0179L9.55747 10.0367L9.57632 10.0553L11.679 7.91545ZM14.215 10.4075L16.3761 8.32665L16.3473 8.29675L16.3177 8.26765L14.215 10.4075ZM14.727 10.6235L14.7446 13.6234L14.7469 13.6234L14.727 10.6235ZM15.298 10.3775L13.1566 8.27637L13.144 8.28927L13.1315 8.30233L15.298 10.3775ZM15.335 9.25645L13.1854 11.3491L13.1923 11.3562L15.335 9.25645ZM12.874 6.72845L15.0236 4.63581L15.0132 4.62508L15.0026 4.61446L12.874 6.72845ZM10.846 5.59145L11.539 2.67259L11.5303 2.67054L10.846 5.59145ZM10.568 4.75045L8.41415 2.66217L8.41354 2.6628L10.568 4.75045ZM12.893 2.35245L10.7576 0.24532L10.7483 0.254703L10.7391 0.264168L12.893 2.35245ZM12.862 1.22845L10.6966 3.30474L10.7085 3.31721L10.7206 3.32954L12.862 1.22845ZM9.618 20.9825C8.70039 20.9825 8.13715 20.6934 7.78516 20.3361L3.51084 24.5468C5.14485 26.2055 7.32761 26.9825 9.618 26.9825V20.9825ZM7.79048 20.3415L3.69248 16.1605L-0.59248 20.3604L3.50552 24.5414L7.79048 20.3415ZM3.68914 16.1571C3.31228 15.7738 3 15.1211 3 14.1975H-3C-3 16.4818 -2.21028 18.7151 -0.589141 20.3638L3.68914 16.1571ZM3 14.1975C3 13.3148 3.30281 12.6703 3.69007 12.2769L-0.586072 8.06802C-2.20081 9.70857 -3 11.9241 -3 14.1975H3ZM3.69114 12.2758L13.2101 2.5948L8.93186 -1.6119L-0.587143 8.0691L3.69114 12.2758ZM13.2082 2.59676C12.8968 2.91292 12.5324 3.00368 12.2735 2.99988C12.0142 2.99607 11.7006 2.8978 11.4387 2.63161L15.7153 -1.57671C13.9215 -3.39968 10.8266 -3.53539 8.93379 -1.61386L13.2082 2.59676ZM11.4376 2.63051C11.0406 2.2267 10.943 1.48397 11.4757 0.944205L15.7463 5.1587C17.631 3.24894 17.5014 0.240201 15.7164 -1.57561L11.4376 2.63051ZM11.4579 0.962384L9.69591 2.77838L14.0021 6.95652L15.7641 5.14052L11.4579 0.962384ZM10.7154 7.64502C10.9946 7.75898 11.248 7.92789 11.4607 8.14174L15.7153 3.91117C14.9357 3.12708 14.0064 2.50771 12.9826 2.08988L10.7154 7.64502ZM11.4384 8.11912L13.9014 10.6491L18.2006 6.46379L15.7376 3.93379L11.4384 8.11912ZM13.911 10.6589C13.3769 10.1152 13.4796 9.3742 13.8726 8.97439L18.1514 13.1805C19.9324 11.3687 20.0691 8.36566 18.191 6.45399L13.911 10.6589ZM13.8565 8.99086C13.9692 8.87449 14.104 8.78192 14.2531 8.71863L16.5974 14.2417C17.1876 13.9912 17.7215 13.6247 18.1675 13.164L13.8565 8.99086ZM14.2531 8.71863C14.4022 8.65535 14.5625 8.62264 14.7245 8.62245L14.7315 14.6224C15.3727 14.6217 16.0072 14.4922 16.5974 14.2417L14.2531 8.71863ZM14.728 8.62245C15.0647 8.62245 15.4036 8.7618 15.6465 9.00849L11.3714 13.2184C12.2604 14.1211 13.4633 14.6225 14.728 14.6225L14.728 8.62245ZM15.6117 8.97365L13.0757 6.48165L8.87032 10.7613L11.4063 13.2533L15.6117 8.97365ZM13.1139 6.51986C12.076 5.46263 10.7515 5.13145 9.606 5.13145V11.1315C9.62782 11.1315 9.53686 11.135 9.37895 11.0785C9.20819 11.0174 9.00886 10.9031 8.83213 10.723L13.1139 6.51986ZM9.606 5.13145C8.5194 5.13145 7.15233 5.41584 6.08919 6.49983L10.3728 10.7011C9.92167 11.1611 9.4806 11.1315 9.606 11.1315V5.13145ZM6.07732 6.51199L2.01032 10.706L6.31768 14.8829L10.3847 10.6889L6.07732 6.51199ZM2.0213 10.6947C1.0381 11.6981 0.643 12.9819 0.643 14.1945H6.643C6.643 14.2239 6.63819 14.3203 6.58705 14.4578C6.53405 14.6003 6.44229 14.7558 6.3067 14.8942L2.0213 10.6947ZM0.643 14.1945C0.643 15.367 1.02025 16.716 2.02479 17.7358L6.29921 13.5251C6.4798 13.7085 6.56339 13.8818 6.60031 13.984C6.63811 14.0886 6.643 14.1605 6.643 14.1945H0.643ZM2.01542 17.7262L6.09842 21.9082L10.3916 17.7167L6.30858 13.5347L2.01542 17.7262ZM6.10376 21.9137C7.1417 22.9714 8.47269 23.2964 9.607 23.2964V17.2964C9.58477 17.2964 9.67286 17.2928 9.82801 17.348C9.99494 17.4073 10.2 17.5215 10.3862 17.7112L6.10376 21.9137ZM9.607 23.2964C10.7447 23.2964 12.0721 22.9695 13.1082 21.9137L8.82576 17.7112C9.01 17.5235 9.21424 17.4088 9.38303 17.3486C9.53969 17.2929 9.62911 17.2964 9.607 17.2964V23.2964ZM13.0698 21.9522L15.6188 19.4472L11.4132 15.1677L8.86423 17.6727L13.0698 21.9522ZM15.653 19.4129C15.5302 19.5376 15.3837 19.6365 15.2221 19.7037L12.9173 14.164C12.3405 14.404 11.8174 14.7569 11.379 15.202L15.653 19.4129ZM15.2221 19.7037C15.0605 19.7709 14.8871 19.8052 14.7121 19.8044L14.7379 13.8045C14.1132 13.8018 13.4942 13.924 12.9173 14.164L15.2221 19.7037ZM14.725 19.8045H14.727V13.8045H14.725V19.8045ZM14.727 19.8045C14.3835 19.8045 14.0767 19.6596 13.8766 19.4565L18.1494 15.2444C17.2553 14.3373 16.0365 13.8045 14.727 13.8045V19.8045ZM13.8736 19.4535C13.4772 19.0503 13.3786 18.309 13.9106 17.7684L18.1874 21.9765C20.0674 20.0659 19.9348 17.0606 18.1525 15.2474L13.8736 19.4535ZM13.8989 17.7803L11.4419 20.3053L15.7421 24.4896L18.1991 21.9646L13.8989 17.7803ZM11.453 20.294C11.0629 20.6907 10.4488 20.9825 9.618 20.9825V26.9825C11.9032 26.9825 14.1091 26.1502 15.731 24.5009L11.453 20.294ZM12.3148 -2.01745C11.8183 -2.02156 11.3259 -1.92575 10.8671 -1.73571L13.1632 3.80759C12.8786 3.92547 12.5732 3.9849 12.2652 3.98235L12.3148 -2.01745ZM10.8671 -1.73571C10.4083 -1.54568 9.99247 -1.26531 9.64424 -0.911287L13.9218 3.29619C13.7058 3.51579 13.4478 3.68971 13.1632 3.80759L10.8671 -1.73571ZM9.64386 -0.910895L0.124857 8.7701L4.40314 12.9768L13.9221 3.2958L9.64386 -0.910895ZM0.124692 8.77027C-1.31535 10.2351 -2 12.207 -2 14.1975H4C4 13.5579 4.21335 13.1699 4.40331 12.9766L0.124692 8.77027ZM-2 14.1975C-2 16.1954 -1.32661 18.19 0.128252 19.6662L4.40175 15.4547C4.22461 15.2749 4 14.8815 4 14.1975H-2ZM0.142164 19.6803L0.143164 19.6813L4.38884 15.4416L4.38784 15.4406L0.142164 19.6803ZM0.123515 19.6614L4.22052 23.8414L8.50548 19.6415L4.40848 15.4615L0.123515 19.6614ZM4.22593 23.8469C5.68252 25.3254 7.62882 25.9825 9.618 25.9825V19.9825C8.94718 19.9825 8.64148 19.7795 8.50007 19.636L4.22593 23.8469ZM9.618 25.9825C11.6131 25.9825 13.5717 25.2703 15.0141 23.8049L10.7379 19.596C10.5523 19.7846 10.1989 19.9825 9.618 19.9825V25.9825ZM15.0261 23.7926L17.4831 21.2676L13.1829 17.0833L10.7259 19.6083L15.0261 23.7926ZM17.4756 21.2753C19.0303 19.689 18.779 17.3124 17.4371 15.949L13.1609 20.1579C12.445 19.4305 12.2257 18.0599 13.1904 17.0756L17.4756 21.2753ZM17.4658 15.9786C17.114 15.6113 16.6921 15.3182 16.2251 15.1169L13.85 20.6268C13.5798 20.5103 13.3357 20.3408 13.1322 20.1283L17.4658 15.9786ZM16.2251 15.1169C15.7581 14.9156 15.2554 14.81 14.7467 14.8065L14.7053 20.8064C14.411 20.8043 14.1202 20.7433 13.85 20.6268L16.2251 15.1169ZM14.7338 14.8065C14.2463 14.8052 13.7578 14.9003 13.2999 15.0909L15.606 20.63C15.3205 20.7489 15.019 20.8072 14.7182 20.8064L14.7338 14.8065ZM13.2999 15.0909C12.8459 15.2799 12.4341 15.5575 12.0885 15.9074L16.3575 20.1235C16.1431 20.3406 15.8877 20.5128 15.606 20.63L13.2999 15.0909ZM12.1202 15.8757L9.57123 18.3807L13.7768 22.6602L16.3258 20.1552L12.1202 15.8757ZM9.53166 18.4204C9.56721 18.3841 9.60431 18.3547 9.63922 18.3322C9.67383 18.31 9.70118 18.2979 9.71642 18.2921C9.74655 18.2808 9.71745 18.2985 9.606 18.2985V24.2985C11.0963 24.2985 12.6465 23.814 13.8163 22.6205L9.53166 18.4204ZM9.606 18.2985C9.49488 18.2985 9.46642 18.2809 9.4965 18.2922C9.51158 18.2979 9.5379 18.3097 9.57076 18.3309C9.6039 18.3522 9.63806 18.3795 9.67001 18.412L5.38999 22.6169C6.56299 23.8109 8.11034 24.2985 9.606 24.2985V18.2985ZM9.67632 18.4184L5.59232 14.2364L1.29968 18.4285L5.38368 22.6105L9.67632 18.4184ZM5.58348 14.2274C5.63843 14.2832 5.65549 14.3259 5.65614 14.3276C5.65624 14.3279 5.641 14.2866 5.641 14.1965H-0.359C-0.359 15.7068 0.153441 17.2646 1.30852 18.4375L5.58348 14.2274ZM5.641 14.1965C5.641 14.1308 5.65235 14.1046 5.64977 14.1114C5.64846 14.1148 5.64383 14.1258 5.63341 14.1422C5.62289 14.1587 5.60754 14.179 5.58644 14.2005L1.30756 9.99441C0.171422 11.1502 -0.359 12.683 -0.359 14.1965H5.641ZM5.60068 14.1859L9.66768 9.99191L5.36032 5.81499L1.29332 10.009L5.60068 14.1859ZM9.65405 10.0059C9.62222 10.0383 9.58505 10.0686 9.54541 10.0939C9.50609 10.1191 9.47351 10.1336 9.45393 10.1408C9.4156 10.1549 9.45242 10.1325 9.605 10.1325V4.13245C8.11566 4.13245 6.56755 4.58607 5.37395 5.80102L9.65405 10.0059ZM9.605 10.1325C9.7161 10.1325 9.74426 10.15 9.71376 10.1385C9.69847 10.1327 9.67193 10.1208 9.63886 10.0996C9.6055 10.0781 9.57112 10.0506 9.53895 10.0179L13.819 5.81302C12.6471 4.62015 11.1008 4.13245 9.605 4.13245V10.1325ZM9.57632 10.0553L12.1123 12.5473L16.3177 8.26765L13.7817 5.77565L9.57632 10.0553ZM12.0539 12.4883C12.4021 12.8499 12.8202 13.137 13.2827 13.3321L15.6149 7.80393C15.9014 7.92481 16.1604 8.10265 16.3761 8.32665L12.0539 12.4883ZM13.2827 13.3321C13.7453 13.5273 14.2426 13.6264 14.7446 13.6234L14.7094 7.6235C15.0203 7.62167 15.3284 7.68306 15.6149 7.80393L13.2827 13.3321ZM14.7469 13.6234C15.2552 13.62 15.7576 13.5146 16.2244 13.3135L13.8504 7.80316C14.1211 7.68656 14.4124 7.62547 14.7071 7.62352L14.7469 13.6234ZM16.2244 13.3135C16.6912 13.1124 17.1129 12.8197 17.4645 12.4526L13.1315 8.30233C13.3353 8.0895 13.5798 7.91976 13.8504 7.80316L16.2244 13.3135ZM17.4394 12.4785C18.7654 11.1271 19.0412 8.75221 17.4777 7.15674L13.1923 11.3562C12.2148 10.3587 12.4566 8.98982 13.1566 8.27637L17.4394 12.4785ZM17.4846 7.16381L15.0236 4.63581L10.7244 8.82109L13.1854 11.3491L17.4846 7.16381ZM15.0026 4.61446C14.0517 3.65695 12.852 2.98435 11.539 2.6726L10.153 8.5103C10.3775 8.56363 10.5827 8.67867 10.7454 8.84244L15.0026 4.61446ZM11.5303 2.67054C12.2932 2.84927 13.056 3.42559 13.3416 4.39415L7.58643 6.09075C7.97396 7.40532 9.04884 8.25164 10.1617 8.51236L11.5303 2.67054ZM13.3416 4.39415C13.5317 5.0392 13.4968 6.03894 12.7225 6.83811L8.41354 2.6628C7.38916 3.71996 7.29427 5.0997 7.58643 6.09075L13.3416 4.39415ZM12.7219 6.83873L15.0469 4.44073L10.7391 0.264168L8.41415 2.66217L12.7219 6.83873ZM15.0284 4.45958C16.5944 2.87256 16.3427 0.492331 15.0034 -0.872635L10.7206 3.32954C10.0073 2.60257 9.78758 1.22834 10.7576 0.24532L15.0284 4.45958ZM15.0274 -0.847842C14.6754 -1.21491 14.2534 -1.50758 13.7862 -1.7085L11.4157 3.80338C11.145 3.68697 10.9005 3.51741 10.6966 3.30474L15.0274 -0.847842ZM13.7862 -1.7085C13.319 -1.90942 12.8163 -2.01449 12.3077 -2.0175L12.2723 3.9824C11.9776 3.98066 11.6864 3.91978 11.4157 3.80338L13.7862 -1.7085Z" fill="black" mask="url(#path-1-inside-1_1_7)"/>
</svg>
