<svg width="17" height="24" viewBox="0 0 17 24" fill="none" xmlns="http://www.w3.org/2000/svg">
<path d="M9.618 23.9825C8.014 23.9825 6.641 23.4495 5.648 22.4415L1.55 18.2605C0.551 17.2445 0 15.8015 0 14.1975C0 12.6195 0.551 11.1895 1.552 10.1725L11.071 0.491451C11.731 -0.178549 12.9 -0.160549 13.577 0.527451C14.271 1.23345 14.287 2.36645 13.611 3.05145L11.849 4.86745C12.5005 5.13334 13.0919 5.52748 13.588 6.02645L16.051 8.55645C16.723 9.24045 16.706 10.3715 16.012 11.0775C15.8453 11.2496 15.6458 11.3866 15.4253 11.4802C15.2047 11.5738 14.9676 11.6222 14.728 11.6225C14.264 11.6225 13.832 11.4415 13.509 11.1135L10.973 8.62145C10.652 8.29445 10.194 8.13145 9.606 8.13145C9 8.13145 8.537 8.28845 8.231 8.60045L4.164 12.7945C3.822 13.1435 3.643 13.6255 3.643 14.1945C3.643 14.7715 3.832 15.2955 4.162 15.6305L8.245 19.8125C8.56 20.1335 9.019 20.2964 9.607 20.2964C10.195 20.2964 10.652 20.1335 10.967 19.8125L13.516 17.3075C13.6738 17.1473 13.8621 17.0202 14.0697 16.9339C14.2773 16.8475 14.5001 16.8035 14.725 16.8045H14.727C15.21 16.8045 15.666 16.9985 16.013 17.3505C16.706 18.0555 16.723 19.1874 16.049 19.8724L13.592 22.3975C12.586 23.4205 11.176 23.9825 9.618 23.9825ZM12.29 0.982451C12.1957 0.981671 12.1023 0.99986 12.0152 1.03594C11.9281 1.07201 11.8491 1.12524 11.783 1.19245L2.264 10.8735C1.449 11.7025 1 12.8825 1 14.1975C1 15.5385 1.449 16.7324 2.265 17.5604L2.266 17.5615L6.363 21.7415C7.162 22.5525 8.288 22.9825 9.618 22.9825C10.906 22.9825 12.062 22.5275 12.876 21.7005L15.333 19.1755C15.628 18.8745 15.612 18.3714 15.299 18.0534C15.2249 17.976 15.136 17.9143 15.0375 17.8719C14.9391 17.8294 14.8332 17.8072 14.726 17.8064C14.6326 17.8062 14.5392 17.8246 14.453 17.8604C14.3668 17.8963 14.2886 17.949 14.223 18.0155L11.674 20.5205C11.177 21.0275 10.46 21.2985 9.606 21.2985C8.752 21.2985 8.034 21.0275 7.53 20.5145L3.446 16.3325C2.927 15.8055 2.641 15.0465 2.641 14.1965C2.641 13.3725 2.927 12.6265 3.447 12.0975L7.514 7.90345C8.017 7.39145 8.72 7.13245 9.605 7.13245C10.459 7.13245 11.176 7.40345 11.679 7.91545L14.215 10.4075C14.2813 10.4763 14.3608 10.5309 14.4488 10.568C14.5368 10.6052 14.6315 10.624 14.727 10.6235C14.8338 10.6227 14.9394 10.6006 15.0374 10.5583C15.1355 10.5161 15.2241 10.4546 15.298 10.3775C15.611 10.0585 15.628 9.55545 15.335 9.25645L12.874 6.72845C12.3172 6.16781 11.6148 5.77399 10.846 5.59145C10.671 5.55045 10.515 5.41545 10.464 5.24245C10.413 5.06945 10.443 4.87945 10.568 4.75045L12.893 2.35245C13.191 2.05045 13.175 1.54745 12.862 1.22845C12.788 1.15125 12.6992 1.0897 12.6009 1.04744C12.5027 1.00518 12.397 0.983083 12.29 0.982451Z" fill="black"/>
</svg>
